<svg id="SvgjsSvg1006" width="834.337890625" height="306.8515625" xmlns="http://www.w3.org/2000/svg" version="1.1" xmlns:xlink="http://www.w3.org/1999/xlink" xmlns:svgjs="http://svgjs.com/svgjs"><defs id="SvgjsDefs1007"><marker id="SvgjsMarker1030" markerWidth="16" markerHeight="12" refX="16" refY="6" viewBox="0 0 16 12" orient="auto" markerUnits="userSpaceOnUse" stroke-dasharray="0,0"><path id="SvgjsPath1031" d="M0,2 L14,6 L0,11 L0,2" fill="#323232" stroke="#323232" stroke-width="2"></path></marker><marker id="SvgjsMarker1034" markerWidth="16" markerHeight="12" refX="16" refY="6" viewBox="0 0 16 12" orient="auto" markerUnits="userSpaceOnUse" stroke-dasharray="0,0"><path id="SvgjsPath1035" d="M0,2 L14,6 L0,11 L0,2" fill="#323232" stroke="#323232" stroke-width="2"></path></marker><marker id="SvgjsMarker1056" markerWidth="16" markerHeight="12" refX="16" refY="6" viewBox="0 0 16 12" orient="auto" markerUnits="userSpaceOnUse" stroke-dasharray="0,0"><path id="SvgjsPath1057" d="M0,2 L14,6 L0,11 L0,2" fill="#323232" stroke="#323232" stroke-width="2"></path></marker><marker id="SvgjsMarker1060" markerWidth="16" markerHeight="12" refX="16" refY="6" viewBox="0 0 16 12" orient="auto" markerUnits="userSpaceOnUse" stroke-dasharray="0,0"><path id="SvgjsPath1061" d="M0,2 L14,6 L0,11 L0,2" fill="#323232" stroke="#323232" stroke-width="2"></path></marker><marker id="SvgjsMarker1072" markerWidth="16" markerHeight="12" refX="16" refY="6" viewBox="0 0 16 12" orient="auto" markerUnits="userSpaceOnUse" stroke-dasharray="0,0"><path id="SvgjsPath1073" d="M0,2 L14,6 L0,11 L0,2" fill="#323232" stroke="#323232" stroke-width="2"></path></marker><marker id="SvgjsMarker1082" markerWidth="16" markerHeight="12" refX="16" refY="6" viewBox="0 0 16 12" orient="auto" markerUnits="userSpaceOnUse" stroke-dasharray="0,0"><path id="SvgjsPath1083" d="M0,2 L14,6 L0,11 L0,2" fill="#323232" stroke="#323232" stroke-width="2"></path></marker><marker id="SvgjsMarker1086" markerWidth="16" markerHeight="12" refX="16" refY="6" viewBox="0 0 16 12" orient="auto" markerUnits="userSpaceOnUse" stroke-dasharray="0,0"><path id="SvgjsPath1087" d="M0,2 L14,6 L0,11 L0,2" fill="#323232" stroke="#323232" stroke-width="2"></path></marker></defs><g id="SvgjsG1008" transform="translate(177.8083147321428,86.34207589285725)"><path id="SvgjsPath1009" d="M 0 0L 100 0L 100 70L 0 70Z" stroke="rgba(50,50,50,1)" stroke-width="2" fill-opacity="1" fill="#ffffff"></path><g id="SvgjsG1010"><text id="SvgjsText1011" font-family="微软雅黑" text-anchor="middle" font-size="13px" width="80px" fill="#323232" font-weight="400" align="middle" lineHeight="125%" anchor="middle" family="微软雅黑" size="13px" weight="400" font-style="" opacity="1" y="25.375" transform="rotate(0)"><tspan id="SvgjsTspan1012" dy="16" x="50"><tspan id="SvgjsTspan1013" style="text-decoration:;">Raspberry pi</tspan></tspan></text></g></g><g id="SvgjsG1014" transform="translate(33.52260044642853,25.002790178571303)"><path id="SvgjsPath1015" d="M 0 27.5L 47.500000000000014 0L 95.00000000000003 27.5L 47.500000000000014 55Z" stroke="rgba(50,50,50,1)" stroke-width="2" fill-opacity="1" fill="#ffffff"></path><g id="SvgjsG1016"><text id="SvgjsText1017" font-family="微软雅黑" text-anchor="middle" font-size="13px" width="76px" fill="#323232" font-weight="400" align="middle" lineHeight="125%" anchor="middle" family="微软雅黑" size="13px" weight="400" font-style="" opacity="1" y="18.15" transform="rotate(0)"><tspan id="SvgjsTspan1018" dy="16" x="48"><tspan id="SvgjsTspan1019" style="text-decoration:;">acc sensor</tspan></tspan></text></g></g><g id="SvgjsG1020" transform="translate(25.002192283163296,136.43136160714278)"><path id="SvgjsPath1021" d="M 0 32.14285714285711L 53.39285714285711 0L 106.78571428571422 32.14285714285711L 53.39285714285711 64.28571428571422Z" stroke="rgba(50,50,50,1)" stroke-width="2" fill-opacity="1" fill="#ffffff"></path><g id="SvgjsG1022"><text id="SvgjsText1023" font-family="微软雅黑" text-anchor="middle" font-size="13px" width="87px" fill="#323232" font-weight="400" align="middle" lineHeight="125%" anchor="middle" family="微软雅黑" size="13px" weight="400" font-style="" opacity="1" y="14.339285714285682" transform="rotate(0)"><tspan id="SvgjsTspan1024" dy="16" x="53.5"><tspan id="SvgjsTspan1025" style="text-decoration:;">Temperature </tspan></tspan><tspan id="SvgjsTspan1026" dy="16" x="53.5"><tspan id="SvgjsTspan1027" style="text-decoration:;">sensor</tspan></tspan></text></g></g><g id="SvgjsG1028"><path id="SvgjsPath1029" d="M128.52260044642856 52.5027901785713L153.38875442790948 52.5027901785713L153.38875442790948 89.78169949783049L178.25490840939037 89.78169949783049" stroke="#323232" stroke-width="2" fill="none" marker-end="url(#SvgjsMarker1030)"></path></g><g id="SvgjsG1032"><path id="SvgjsPath1033" d="M131.78790656887753 168.5742187499999L178.2162793312472 168.5742187499999L178.2162793312472 152.81409176966002" stroke="#323232" stroke-width="2" fill="none" marker-end="url(#SvgjsMarker1034)"></path></g><g id="SvgjsG1036" transform="translate(517.6297433035692,38.395647321428555)"><path id="SvgjsPath1037" d="M 0 9.8C 0 -2.8000000000000003 70 -2.8000000000000003 70 9.8L 70 60.199999999999996C 70 72.8 0 72.8 0 60.199999999999996L 0 9.8Z" stroke="rgba(50,50,50,1)" stroke-width="2" fill-opacity="1" fill="#ffffff"></path><path id="SvgjsPath1038" d="M 70 9.8C 70 21 0 21 0 9.8L 0 14C 0 25.2 70 25.2 70 14L 70 18.2C 70 29.4 0 29.4 0 18.2C 0 29.4 70 29.4 70 18.2Z" stroke="rgba(50,50,50,1)" stroke-width="2" fill-opacity="1" fill="#ffffff"></path><path id="SvgjsPath1039" d="M 0 7Q 35 -7 70 7L 70 63Q 35 77 0 63L 0 7Z" stroke="none" fill="none"></path><g id="SvgjsG1040"><text id="SvgjsText1041" font-family="微软雅黑" text-anchor="middle" font-size="13px" width="70px" fill="#323232" font-weight="400" align="middle" lineHeight="125%" anchor="middle" family="微软雅黑" size="13px" weight="400" font-style="" opacity="1" y="37.041666666666664" transform="rotate(0)"><tspan id="SvgjsTspan1042" dy="16" x="35"><tspan id="SvgjsTspan1043" style="text-decoration:;">Database</tspan></tspan></text></g></g><g id="SvgjsG1044" transform="translate(324.2011718749998,37.14564732142844)"><path id="SvgjsPath1045" d="M 13.499999999999998 0L 107.07142857142856 0L 120.57142857142856 32.14285714285714L 107.07142857142856 64.28571428571428L 13.499999999999998 64.28571428571428L 0 32.14285714285714L 13.499999999999998 0Z" stroke="rgba(50,50,50,1)" stroke-width="2" fill-opacity="1" fill="#ffffff"></path><g id="SvgjsG1046"><text id="SvgjsText1047" font-family="微软雅黑" text-anchor="middle" font-size="13px" width="101px" fill="#323232" font-weight="400" align="middle" lineHeight="125%" anchor="middle" family="微软雅黑" size="13px" weight="400" font-style="" opacity="1" y="6.017857142857139" transform="rotate(0)"><tspan id="SvgjsTspan1048" dy="16" x="60.5"><tspan id="SvgjsTspan1049" style="text-decoration:;">SVM model, </tspan></tspan><tspan id="SvgjsTspan1050" dy="16" x="60.5"><tspan id="SvgjsTspan1051" style="text-decoration:;">volumn </tspan></tspan><tspan id="SvgjsTspan1052" dy="16" x="60.5"><tspan id="SvgjsTspan1053" style="text-decoration:;">estimation</tspan></tspan></text></g></g><g id="SvgjsG1054"><path id="SvgjsPath1055" d="M275.7452403831585 86.53647080193L299.97320612907913 86.53647080193L299.97320612907913 69.28850446428558L324.2011718749998 69.28850446428558" stroke="#323232" stroke-width="2" fill="none" marker-end="url(#SvgjsMarker1056)"></path></g><g id="SvgjsG1058"><path id="SvgjsPath1059" d="M444.7726004464283 69.28850446428558L481.20117187499875 69.28850446428558L481.20117187499875 73.39564732142856L517.6297433035692 73.39564732142856" stroke="#323232" stroke-width="2" fill="none" marker-end="url(#SvgjsMarker1060)"></path></g><g id="SvgjsG1062" transform="translate(339.48688616071405,197.85993303571422)"><path id="SvgjsPath1063" d="M 12.8807142857143 58.499999999999986C -10.733928571428585 41.78571428571428 4.2935714285714335 29.249999999999993 9.660535714285725 25.071428571428566C 7.513750000000009 4.178571428571428 34.34857142857147 0 45.08250000000005 8.357142857142856C 53.66964285714292 -4.178571428571428 80.50446428571438 0 80.50446428571438 12.535714285714283C 101.97232142857153 8.357142857142856 110.55946428571441 25.071428571428566 101.97232142857153 45.96428571428571C 109.48607142857155 62.678571428571416 101.97232142857153 83.57142857142856 77.2842857142858 75.21428571428571C 71.91732142857151 86.07857142857141 50.44946428571434 86.07857142857141 45.08250000000005 75.21428571428571C 34.34857142857147 83.57142857142856 12.8807142857143 79.39285714285712 12.8807142857143 58.499999999999986Z" stroke="rgba(50,50,50,1)" stroke-width="2" fill-opacity="1" fill="#ffffff"></path><g id="SvgjsG1064"><text id="SvgjsText1065" font-family="微软雅黑" text-anchor="middle" font-size="13px" width="88px" fill="#323232" font-weight="400" align="middle" lineHeight="125%" anchor="middle" family="微软雅黑" size="13px" weight="400" font-style="" opacity="1" y="23.660714285714278" transform="rotate(0)"><tspan id="SvgjsTspan1066" dy="16" x="54"><tspan id="SvgjsTspan1067" style="text-decoration:;">Thingspeak</tspan></tspan><tspan id="SvgjsTspan1068" dy="16" x="54"><tspan id="SvgjsTspan1069" style="text-decoration:;">MQTT</tspan></tspan></text></g></g><g id="SvgjsG1070"><path id="SvgjsPath1071" d="M277.0813235823667 155.88418700491496L277.0813235823667 239.6456473214285L339.48688616071405 239.6456473214285" stroke="#323232" stroke-width="2" fill="none" marker-end="url(#SvgjsMarker1072)"></path></g><g id="SvgjsG1074" transform="translate(681.344029017857,127.85993303571422)"><path id="SvgjsPath1075" d="M 17.09999999999998 0L 110.61428571428569 0L 127.71428571428567 40.714285714285666L 110.61428571428569 81.42857142857133L 17.09999999999998 81.42857142857133L 0 40.714285714285666L 17.09999999999998 0Z" stroke="rgba(50,50,50,1)" stroke-width="2" fill-opacity="1" fill="#ffffff"></path><g id="SvgjsG1076"><text id="SvgjsText1077" font-family="微软雅黑" text-anchor="middle" font-size="13px" width="108px" fill="#323232" font-weight="400" align="middle" lineHeight="125%" anchor="middle" family="微软雅黑" size="13px" weight="400" font-style="" opacity="1" y="31.089285714285666" transform="rotate(0)"><tspan id="SvgjsTspan1078" dy="16" x="64"><tspan id="SvgjsTspan1079" style="text-decoration:;">Web server</tspan></tspan></text></g></g><g id="SvgjsG1080"><path id="SvgjsPath1081" d="M587.6297433035692 73.39564732142856L634.4868861607131 73.39564732142856L634.4868861607131 168.5742187499999L681.344029017857 168.5742187499999" stroke="#323232" stroke-width="2" fill="none" marker-end="url(#SvgjsMarker1082)"></path></g><g id="SvgjsG1084"><path id="SvgjsPath1085" d="M441.92076651785703 217.0813616071428L561.632397767857 217.0813616071428L561.632397767857 168.5742187499999L681.344029017857 168.5742187499999" stroke="#323232" stroke-width="2" fill="none" marker-end="url(#SvgjsMarker1086)"></path></g></svg>